<svg width="514" height="105" viewBox="0 0 514 105" fill="none" xmlns="http://www.w3.org/2000/svg">
<path d="M24.5251 0H4.5742C2.82974 0 1.92143 2.07737 3.10595 3.35803L34.6507 37.463C35.7142 38.6128 35.7142 40.3872 34.6507 41.537L3.10595 75.642C1.92143 76.9226 2.82974 79 4.5742 79H24.5251C25.0826 79 25.6148 78.7673 25.9934 78.358L60.0503 41.537C61.1138 40.3872 61.1138 38.6128 60.0503 37.463L25.9934 0.641969C25.6148 0.232695 25.0826 0 24.5251 0Z" fill="#1B1B1B"/>
<path d="M299.869 43.7075C296.76 39.001 293.389 34.0148 289.757 28.7488C289.743 28.729 289.723 28.714 289.7 28.7061C289.677 28.6981 289.652 28.6976 289.629 28.7046C289.606 28.7116 289.586 28.7257 289.571 28.7449C289.556 28.7641 289.548 28.7875 289.547 28.8118V78.3767C289.547 78.4552 289.531 78.533 289.501 78.6055C289.47 78.6781 289.426 78.744 289.369 78.7995C289.313 78.855 289.246 78.8991 289.172 78.9291C289.098 78.9592 289.019 78.9746 288.939 78.9746H273.357C273.207 78.9746 273.063 78.9139 272.957 78.8057C272.851 78.6975 272.792 78.5507 272.792 78.3977V0.625302C272.792 0.47785 272.85 0.336417 272.954 0.232153C273.058 0.127889 273.2 0.0693359 273.347 0.0693359H288.363C288.598 0.0699592 288.83 0.127513 289.038 0.237115C289.246 0.346716 289.424 0.505083 289.558 0.698707C302.873 20.3429 310.679 31.8993 312.978 35.368C316.094 40.0745 319.468 45.0607 323.1 50.3266C323.114 50.3465 323.134 50.3614 323.157 50.3694C323.18 50.3773 323.205 50.3779 323.228 50.3709C323.251 50.3639 323.272 50.3498 323.286 50.3306C323.301 50.3113 323.309 50.2879 323.31 50.2637V0.698707C323.31 0.540127 323.374 0.388047 323.488 0.275914C323.602 0.163781 323.757 0.100804 323.918 0.100804H339.5C339.65 0.100804 339.794 0.161569 339.9 0.269768C340.006 0.377966 340.066 0.524723 340.066 0.677738V78.4501C340.066 78.5232 340.051 78.5954 340.023 78.6629C339.996 78.7304 339.955 78.7916 339.903 78.8433C339.851 78.8949 339.79 78.9359 339.723 78.9638C339.655 78.9918 339.583 79.0061 339.51 79.0061H324.494C324.259 79.0055 324.028 78.9479 323.82 78.8383C323.612 78.7287 323.433 78.5703 323.3 78.3767C309.984 58.7325 302.174 47.1761 299.869 43.7075Z" fill="#1B1B1B"/>
<path d="M477.397 20.8707H484.565C484.773 20.8707 484.973 20.7879 485.121 20.6403C485.268 20.4928 485.351 20.2926 485.351 20.084V5.24073C485.351 5.0738 485.417 4.91372 485.535 4.79569C485.653 4.67765 485.813 4.61133 485.98 4.61133H500.65C500.825 4.61133 500.993 4.68094 501.117 4.80488C501.241 4.92881 501.31 5.09693 501.31 5.2722V20.1574C501.31 20.3299 501.38 20.4953 501.504 20.6173C501.627 20.7393 501.795 20.8078 501.97 20.8078H513.298C513.479 20.8078 513.652 20.8807 513.78 21.0106C513.907 21.1404 513.979 21.3165 513.979 21.5001V33.4272C513.979 33.5941 513.914 33.7542 513.798 33.8722C513.682 33.9903 513.525 34.0566 513.361 34.0566H501.928C501.753 34.0566 501.585 34.1262 501.462 34.2501C501.338 34.3741 501.268 34.5422 501.268 34.7175C501.289 50.2076 501.317 58.9912 501.352 61.0682C501.359 61.7465 501.925 62.806 503.05 64.2466C504.873 66.5754 511.014 65.8201 513.361 65.3376C513.438 65.3202 513.517 65.3205 513.594 65.3383C513.671 65.3561 513.743 65.3909 513.804 65.4403C513.866 65.4897 513.915 65.5524 513.949 65.6236C513.983 65.6948 514 65.7727 514 65.8516V78.492C514 78.6248 513.948 78.7524 513.854 78.8482C513.76 78.9441 513.632 79.0006 513.497 79.006C503.469 79.4571 491.607 80.7788 486.807 69.7749C485.648 67.1244 485.152 63.0788 485.319 57.638C485.431 53.8057 485.466 46.092 485.424 34.4972C485.424 34.3914 485.382 34.2901 485.308 34.2153C485.233 34.1406 485.132 34.0986 485.026 34.0986H477.324C477.157 34.0986 476.997 34.0333 476.879 33.9173C476.762 33.8012 476.695 33.6438 476.695 33.4796V21.5631C476.695 21.4722 476.713 21.3821 476.749 21.2981C476.784 21.2141 476.836 21.1378 476.901 21.0735C476.966 21.0092 477.044 20.9582 477.129 20.9234C477.214 20.8886 477.305 20.8707 477.397 20.8707Z" fill="#1B1B1B"/>
<path d="M78.5767 0.0166074C90.1453 -0.0113655 99.0557 -0.00386785 105.308 0.0380918C123.384 0.153483 134.261 11.5348 132.553 29.7139C131.421 41.6724 122.566 50.2535 110.736 51.9424C105.671 52.6696 100.729 52.7706 95.9087 52.2461C95.7827 52.2313 95.6547 52.2432 95.5337 52.2813C95.4128 52.3193 95.3014 52.3827 95.2065 52.4668C95.1117 52.5509 95.0353 52.654 94.9829 52.7695C94.9306 52.8851 94.9035 53.0108 94.9028 53.1377V78.6494C94.9028 78.7412 94.8671 78.8296 94.8042 78.8945C94.7413 78.9593 94.6557 78.9951 94.5669 78.9951H78.5972C78.5175 78.9951 78.4384 78.9798 78.3647 78.9492C78.2911 78.9186 78.2239 78.8738 78.1675 78.8174C78.1111 78.7609 78.0662 78.6939 78.0356 78.6201C78.0051 78.5463 77.9897 78.4666 77.9897 78.3867V0.604498C77.9897 0.4487 78.0516 0.298648 78.1616 0.188482C78.2717 0.0784284 78.4211 0.0166074 78.5767 0.0166074ZM95.4888 14.6924C95.3157 14.6953 95.1503 14.7661 95.0288 14.8897C94.9076 15.0132 94.8395 15.1794 94.8394 15.3525L94.9438 36.9619C94.9438 37.0496 94.9618 37.1369 94.9956 37.2178C95.0294 37.2986 95.0787 37.3721 95.1411 37.4336C95.2035 37.4951 95.2776 37.5436 95.3589 37.5762C95.4401 37.6087 95.5272 37.6244 95.6147 37.6231L105.601 37.5703C108.408 37.556 111.094 36.462 113.069 34.5283C115.044 32.5946 116.146 29.9794 116.132 27.2588L116.112 24.8467C116.105 23.4993 115.825 22.166 115.287 20.9238C114.749 19.6817 113.963 18.5542 112.975 17.6065C111.987 16.6588 110.816 15.9094 109.53 15.4004C108.243 14.8913 106.865 14.6325 105.475 14.6397L95.4888 14.6924Z" fill="#1B1B1B"/>
<path d="M217.812 104.266L227.736 78.1566C227.871 77.8058 227.867 77.4157 227.725 77.0656L205.196 21.3326C205.172 21.2753 205.162 21.2129 205.168 21.151C205.173 21.0891 205.194 21.0296 205.228 20.9777C205.263 20.9258 205.309 20.8832 205.364 20.8536C205.418 20.824 205.479 20.8084 205.542 20.8081H221.993C222.14 20.8075 222.284 20.8523 222.406 20.9366C222.528 21.021 222.621 21.1408 222.674 21.2801L235.983 57.334C236.023 57.4363 236.094 57.5239 236.185 57.5852C236.277 57.6465 236.384 57.6787 236.494 57.6776C236.604 57.6765 236.711 57.6421 236.801 57.5789C236.892 57.5157 236.96 57.4267 236.999 57.3236L249.563 21.4689C249.634 21.2698 249.765 21.0975 249.938 20.9755C250.11 20.8535 250.316 20.7877 250.527 20.7871L265.984 20.8815C266.103 20.8832 266.219 20.9138 266.324 20.9708C266.428 21.0278 266.517 21.1093 266.583 21.2084C266.649 21.3076 266.69 21.4212 266.703 21.5397C266.715 21.6582 266.698 21.7779 266.654 21.8885C266.245 22.9061 265.187 24.4166 264.621 25.8537C254.045 52.7569 243.939 78.9608 234.306 104.465C234.248 104.623 234.145 104.758 234.01 104.854C233.875 104.95 233.715 105.001 233.551 105H218.326C218.238 105.001 218.151 104.98 218.073 104.939C217.995 104.899 217.928 104.84 217.877 104.768C217.827 104.696 217.794 104.612 217.783 104.525C217.772 104.438 217.782 104.349 217.812 104.266Z" fill="#1B1B1B"/>
<path d="M410.63 78.9116C410.6 78.9102 410.571 78.9012 410.545 78.8853C410.519 78.8695 410.498 78.8474 410.484 78.8216C410.47 78.7958 410.464 78.7672 410.466 78.7387C410.467 78.7102 410.477 78.6829 410.494 78.6599L431.892 50.2007C432.1 49.9245 432.213 49.5885 432.215 49.2426C432.217 48.8967 432.107 48.5594 431.902 48.281L411.877 21.4687C411.839 21.4142 411.817 21.3504 411.812 21.2841C411.808 21.2178 411.821 21.1515 411.851 21.0923C411.881 21.0331 411.927 20.9831 411.983 20.9478C412.039 20.9125 412.104 20.8931 412.171 20.8918H430.079C430.359 20.8914 430.635 20.9567 430.886 21.0823C431.137 21.208 431.356 21.3905 431.525 21.6156L442.276 36.0183C442.325 36.0827 442.388 36.1348 442.46 36.1704C442.533 36.2059 442.612 36.2239 442.693 36.2229C442.773 36.2219 442.853 36.2019 442.924 36.1645C442.996 36.1271 443.057 36.0734 443.104 36.0078L453.248 21.238C453.339 21.1083 453.459 21.0024 453.6 20.9294C453.74 20.8563 453.896 20.8183 454.054 20.8184H471.963C472.077 20.8193 472.188 20.8518 472.285 20.9121C472.382 20.9725 472.46 21.0584 472.511 21.1604C472.562 21.2625 472.583 21.3766 472.574 21.4902C472.564 21.6038 472.523 21.7126 472.455 21.8044L452.137 48.8265C452.047 48.9444 451.998 49.0891 451.998 49.2387C451.998 49.3883 452.047 49.5345 452.137 49.6552L473.619 78.4396C473.657 78.4887 473.681 78.5476 473.687 78.6097C473.693 78.6719 473.682 78.7348 473.653 78.7914C473.625 78.8481 473.581 78.8963 473.527 78.9304C473.473 78.9646 473.41 78.9835 473.346 78.9851H454.736C454.562 78.9853 454.391 78.9434 454.237 78.863C454.084 78.7825 453.953 78.666 453.855 78.5235L442.507 62.1068C442.457 62.0332 442.39 61.973 442.311 61.9314C442.233 61.8897 442.145 61.868 442.056 61.868C441.967 61.868 441.88 61.8897 441.801 61.9314C441.723 61.973 441.656 62.0332 441.606 62.1068L430.509 78.2508C430.37 78.4544 430.183 78.621 429.964 78.7362C429.745 78.8514 429.5 78.9116 429.251 78.9116H410.63Z" fill="#1B1B1B"/>
<path d="M375.735 19.4761C380.982 19.2593 385.914 20.3079 390.531 22.6226C402.886 28.8116 407.717 41.2212 407.402 54.7007C407.397 54.8584 407.331 55.0081 407.218 55.1177C407.104 55.2273 406.953 55.2887 406.795 55.2886H363.098C362.969 55.2885 362.843 55.3182 362.728 55.3755C362.613 55.4328 362.513 55.516 362.436 55.6187C362.358 55.7215 362.305 55.8408 362.282 55.9673C362.259 56.0938 362.266 56.2246 362.302 56.3482C364.957 65.0895 370.843 68.7782 379.959 67.4146C384.248 66.7711 387.577 64.7993 389.945 61.4986C390.082 61.3101 390.26 61.1561 390.468 61.0503C390.676 60.9445 390.906 60.8901 391.14 60.8902H404.972C405.1 60.8905 405.227 60.9213 405.342 60.98C405.456 61.0387 405.555 61.1238 405.631 61.2281C405.706 61.3322 405.756 61.4526 405.776 61.5796C405.797 61.7067 405.787 61.837 405.747 61.9595C401.22 76.2258 386.256 82.4465 372.319 80.4429C359.57 78.5966 351.316 71.8381 347.558 60.1665C341.291 40.7078 355.113 20.3364 375.735 19.4761ZM376.899 32.8296C369.522 32.8088 365.005 36.9733 362.637 43.6343C362.62 43.6807 362.615 43.7308 362.621 43.7798C362.628 43.829 362.647 43.8762 362.676 43.9165C362.705 43.9567 362.743 43.9892 362.787 44.0113C362.832 44.0333 362.881 44.0448 362.931 44.0435C370.817 44.0505 375.463 44.057 376.867 44.064C378.278 44.064 382.928 44.0818 390.815 44.1167C390.864 44.1181 390.914 44.1075 390.958 44.0855C391.003 44.0634 391.041 44.0301 391.07 43.9898C391.099 43.9495 391.117 43.9021 391.124 43.8531C391.131 43.804 391.126 43.754 391.108 43.7075C388.782 37.0359 384.276 32.8506 376.899 32.8296Z" fill="#1B1B1B"/>
<path d="M166.204 19.6122C172.757 19.6682 178.23 21.9867 182.624 26.5673C182.673 26.6143 182.734 26.6463 182.8 26.6591C182.866 26.6719 182.935 26.6642 182.997 26.6386C183.059 26.613 183.113 26.57 183.151 26.5146C183.189 26.459 183.21 26.3934 183.211 26.3261L183.191 21.3954C183.189 21.3276 183.202 21.2602 183.227 21.1972C183.252 21.1342 183.29 21.0772 183.338 21.0292C183.386 20.9812 183.443 20.9432 183.506 20.9179C183.569 20.8926 183.637 20.8803 183.704 20.8818H198.469C198.646 20.8818 198.816 20.9509 198.943 21.0741C199.07 21.1974 199.144 21.3649 199.15 21.5419C199.185 22.1573 199.216 31.6267 199.244 49.9491C199.279 68.2762 199.279 77.7485 199.244 78.3661C199.239 78.5433 199.165 78.7115 199.037 78.8349C198.91 78.9583 198.74 79.0274 198.563 79.0273L183.798 79.0693C183.731 79.0706 183.665 79.0587 183.603 79.0341C183.541 79.0095 183.484 78.9725 183.436 78.9257C183.388 78.8788 183.35 78.8224 183.325 78.7607C183.299 78.6989 183.284 78.6324 183.284 78.5654V73.6357C183.283 73.5682 183.262 73.5019 183.224 73.4462C183.186 73.3909 183.133 73.3478 183.071 73.3222C183.008 73.2966 182.94 73.2899 182.873 73.3027C182.807 73.3155 182.746 73.3475 182.698 73.3945C178.317 77.9888 172.854 80.3206 166.309 80.3906C148.631 80.5898 135.91 67.6137 135.889 50.0536C135.858 32.4937 148.537 19.4864 166.204 19.6122ZM170.132 34.7275C166.157 33.8234 161.98 34.5572 158.522 36.7685C155.064 38.9797 152.608 42.4872 151.693 46.5185C150.778 50.5499 151.48 54.7755 153.644 58.2656C155.808 61.7556 159.257 64.2246 163.233 65.1288C167.208 66.033 171.385 65.2981 174.843 63.0868C178.301 60.8756 180.758 57.369 181.673 53.3378C182.588 49.3065 181.886 45.0807 179.722 41.5907C177.558 38.1007 174.108 35.6317 170.132 34.7275Z" fill="#1B1B1B"/>
</svg>
